PathFileType	4	(X/Y/Z)	C:/Users/beibeiliu/ov580/test_trc/User2\sequence.32_training_dense_right.trc
DataRate	CameraRate	NumFrames	NumMarkers	Units	OrigDataRate	OrigDataStartFrame	OrigNumFrames
120	120	8	19	mm	120	56	111
Frame#	Time	ThumbCMC			ThumbMCP			ThumbIP			ThumbTip			IndexMCP			IndexPIP			IndexTip			MiddleMCP			MiddlePIP			MiddleTip			RingMCP			RingPIP			RingTip			PinkyMCP			PinkyPIP			PinkyTip			BackHand1			BackHand2			BackHand3	
		X0	Y0	Z0	X1	Y1	Z1	X2	Y2	Z2	X3	Y3	Z3	X4	Y4	Z4	X5	Y5	Z5	X6	Y6	Z6	X7	Y7	Z7	X8	Y8	Z8	X9	Y9	Z9	X10	Y10	Z10	X11	Y11	Z11	X12	Y12	Z12	X13	Y13	Z13	X14	Y14	Z14	X15	Y15	Z15	X16	Y16	Z16	X17	Y17	Z17	X18	Y18	Z18	
55	0.458333	148.579	28.3379	-48.1651	124.345	41.3569	-74.2121	102.222	48.9364	-97.5695	83.7887	52.6377	-116.049	124.749	-2.53059	-118.971	101.896	7.29242	-134.86	80.3289	21.1344	-143.673	120.373	-28.0973	-117.434	108.62	-28.3649	-145.103	96.0384	-33.7704	-173.996	99.7515	-43.2273	-98.0374	89.1878	-46.299	-126.06	74.0527	-54.3104	-147.252	81.8524	-42.7947	-74.0186	61.0296	-50.3796	-90.2761	51.7676	-59.5666	-108.891	126.401	-36.9502	-49.0755	138.515	-31.079	-16.1747	160.254	-12.5207	-49.8547	
56	0.466667	147.715	34.266	-51.5531	119.75	41.8232	-77.5203	97.803	38.3352	-102.71	79.9119	39.8397	-119.841	133.926	-4.53606	-120.205	114.431	1.52719	-136.512	86.1818	6.84254	-149.122	140.406	-29.3798	-119.099	128.956	-34.7157	-144.637	121.589	-41.5726	-173.99	126.489	-47.1714	-102.362	114.737	-60.0376	-125.05	105.287	-68.9996	-148.119	108.16	-54.6431	-79.7826	91.5332	-68.3992	-93.6698	81.4212	-82.5538	-110.962	145.243	-34.7593	-48.2463	155.767	-26.5664	-18.8964	168.741	-4.36746	-49.837	
57	0.475	145.669	46.1463	-48.6902	118.704	46.7411	-79.1096	97.1855	40.202	-107.282	83.2875	35.9356	-119.001	148.737	9.78228	-119.484	125.567	6.6616	-136.806	99.0295	4.53072	-149.96	158.579	-17.6573	-119.003	151.761	-22.6114	-148.682	147.173	-32.2373	-173.424	149.54	-40.3002	-102.786	144.275	-50.0357	-126.357	141.34	-58.5051	-153.774	134.117	-54.8395	-82.6824	126.072	-63.8296	-101.496	122.784	-82.7579	-121.007	165.064	-19.6606	-49.4095	168.607	-14.4969	-20.5	177.003	12.6842	-46.872	
58	0.483333	139.333	53.4323	-43.9319	114.266	50.2547	-71.3118	99.0078	42.8728	-101.745	88.7354	32.0293	-121.186	158.367	28.2003	-113.362	138.11	24.0497	-136.175	118.033	14.8417	-150.927	177.435	8.59284	-113.698	173.964	0.578349	-146.298	174.738	-1.42909	-175.366	175.886	-14.4254	-104.484	173.583	-28.7651	-128.704	175.545	-33.3349	-152.801	165.149	-38.0149	-84.1397	162.232	-49.793	-105.414	167.656	-62.8369	-124.045	178.026	-3.19101	-44.0814	178.356	3.53897	-11.0061	179.098	35.0794	-37.2524	
59	0.491667	125.013	55.4971	-35.827	105.107	49.062	-69.0323	104.521	34.7717	-101.213	95.0832	27.9265	-120.755	156.681	56.679	-106.674	145.318	43.5718	-129.174	132.952	26.9024	-149.814	184.664	44.9912	-108.811	187.132	43.5554	-138.473	190.959	42.8661	-164.954	194.534	17.9053	-99.0879	199.88	11.6751	-123.612	205.614	8.55577	-148.481	191.393	-7.68597	-80.599	195.986	-17.6178	-102.852	204.933	-21.4025	-123.655	185.474	24.7537	-42.7746	180.071	24.73	-5.39859	169.057	55.8894	-26.4412	
60	0.5	106.599	53.8654	-31.087	100.692	42.4602	-65.6573	99.5734	34.3849	-100.419	95.6247	26.5638	-123.689	146.412	71.2029	-102.228	137.236	58.8888	-128.188	131.52	43.1664	-150.607	172.778	74.3614	-95.7263	175.456	77.7182	-126.541	187.519	80.1037	-159.721	194.749	50.0583	-93.2932	201.622	49.0849	-114.876	212.212	52.2753	-140.993	199.325	21.8714	-74.2119	208.729	21.654	-100.187	224.45	18.2684	-112.861	180.342	46.6502	-33.5774	172.407	41.7954	-0.508534	151.504	69.8194	-22.2828	
61	0.508333	95.1573	49.6185	-31.7656	84.5678	36.9389	-64.5398	88.8368	30.8774	-100.784	93.2875	24.1524	-120.857	126.736	79.0809	-94.3366	126.38	63.66	-123.762	120.145	49.2355	-144.523	157.257	83.0113	-90.493	157.555	92.0569	-123.101	164.071	98.1086	-151.417	177.217	68.4387	-86.5472	186.38	71.0244	-107.23	198.114	76.9521	-132.276	191.152	43.8493	-72.4251	203.162	41.1895	-89.5539	221.984	50.4525	-108.18	165.802	56.6337	-31.1749	159.013	49.7908	1.78777	129.3	73.5422	-17.8326	
62	0.516667	80.4999	41.4133	-28.8048	75.6554	27.6723	-62.4489	80.5119	22.4346	-100.227	81.0103	15.1329	-120.41	112.625	70.9922	-93.1541	111.754	57.4024	-118.9	106.604	38.9444	-144.074	139.932	82.703	-94.6093	139.412	86.8329	-121.782	148.141	92.8697	-153.201	164.214	66.344	-82.55	170.731	74.6035	-109.512	182.787	81.8647	-134.648	179.915	43.5326	-65.68	192.92	48.3696	-87.6689	208.328	58.4869	-103.551	149.552	55.8967	-26.7011	146.452	48.5128	6.13786	115.388	67.302	-18.2666	
